<svg width="24" height="26" viewBox="0 0 24 26" fill="none" xmlns="http://www.w3.org/2000/svg">
<path d="M8 0C8.35362 0 8.69276 0.144172 8.94281 0.400801C9.19286 0.65743 9.33333 1.00549 9.33333 1.36842V2.73684H14.6667V1.36842C14.6667 1.00549 14.8071 0.65743 15.0572 0.400801C15.3072 0.144172 15.6464 0 16 0C16.3536 0 16.6928 0.144172 16.9428 0.400801C17.1929 0.65743 17.3333 1.00549 17.3333 1.36842V2.73684H21.3333C22.0406 2.73684 22.7189 3.02519 23.219 3.53844C23.719 4.0517 24 4.74783 24 5.47368V23.2632C24 23.989 23.719 24.6851 23.219 25.1984C22.7189 25.7117 22.0406 26 21.3333 26H2.66667C1.95942 26 1.28115 25.7117 0.781048 25.1984C0.280951 24.6851 0 23.989 0 23.2632V5.47368C0 4.74783 0.280951 4.0517 0.781048 3.53844C1.28115 3.02519 1.95942 2.73684 2.66667 2.73684H6.66667V1.36842C6.66667 1.00549 6.80714 0.65743 7.05719 0.400801C7.30724 0.144172 7.64638 0 8 0ZM6.66667 5.47368H2.66667V9.57895H21.3333V5.47368H17.3333V6.84211C17.3333 7.20503 17.1929 7.5531 16.9428 7.80972C16.6928 8.06635 16.3536 8.21053 16 8.21053C15.6464 8.21053 15.3072 8.06635 15.0572 7.80972C14.8071 7.5531 14.6667 7.20503 14.6667 6.84211V5.47368H9.33333V6.84211C9.33333 7.20503 9.19286 7.5531 8.94281 7.80972C8.69276 8.06635 8.35362 8.21053 8 8.21053C7.64638 8.21053 7.30724 8.06635 7.05719 7.80972C6.80714 7.5531 6.66667 7.20503 6.66667 6.84211V5.47368ZM21.3333 12.3158H2.66667V23.2632H21.3333V12.3158Z" fill="#FF007A"/>
</svg>
