<svg width="29" height="26" viewBox="0 0 29 26" fill="none" xmlns="http://www.w3.org/2000/svg">
<path d="M13.5619 1.00204C13.8918 1.33204 14.0771 1.77956 14.0771 2.24618C14.0771 2.7128 13.8918 3.16031 13.5619 3.49031L6.00737 11.0449H26.3957C26.8624 11.0449 27.31 11.2303 27.64 11.5603C27.97 11.8903 28.1554 12.3379 28.1554 12.8046C28.1554 13.2713 27.97 13.7189 27.64 14.0489C27.31 14.3789 26.8624 14.5643 26.3957 14.5643H6.00737L13.5619 22.1189C13.8825 22.4508 14.0598 22.8953 14.0558 23.3567C14.0518 23.8181 13.8667 24.2594 13.5405 24.5857C13.2142 24.912 12.7728 25.0971 12.3114 25.1011C11.85 25.1051 11.4055 24.9277 11.0736 24.6072L0.515227 14.0487C0.185328 13.7187 0 13.2712 0 12.8046C0 12.338 0.185328 11.8905 0.515227 11.5605L11.0736 1.00204C11.4036 0.672144 11.8512 0.486816 12.3178 0.486816C12.7844 0.486816 13.2319 0.672144 13.5619 1.00204Z" fill="#373737"/>
</svg>
