<svg width="11" height="11" viewBox="0 0 11 11" fill="none" xmlns="http://www.w3.org/2000/svg">
<path d="M6.07452 0.987976C5.92215 0.835603 5.71549 0.75 5.5 0.75C5.28451 0.75 5.07785 0.835603 4.92548 0.987976C4.7731 1.14035 4.6875 1.34701 4.6875 1.5625V4.6875H1.5625C1.34701 4.6875 1.14035 4.7731 0.987976 4.92548L1.16475 5.10225L0.987976 4.92548C0.835603 5.07785 0.75 5.28451 0.75 5.5C0.75 5.71549 0.835603 5.92215 0.987976 6.07452C1.14035 6.2269 1.34701 6.3125 1.5625 6.3125H4.6875V9.4375C4.6875 9.65299 4.7731 9.85965 4.92548 10.012C5.07785 10.1644 5.28451 10.25 5.5 10.25C5.71549 10.25 5.92215 10.1644 6.07452 10.012C6.2269 9.85965 6.3125 9.65299 6.3125 9.4375V6.3125H9.4375C9.65299 6.3125 9.85965 6.2269 10.012 6.07452C10.1644 5.92215 10.25 5.71549 10.25 5.5C10.25 5.28451 10.1644 5.07785 10.012 4.92548C9.85965 4.7731 9.65299 4.6875 9.4375 4.6875H6.3125V1.5625C6.3125 1.34701 6.2269 1.14035 6.07452 0.987976Z" fill="#0B6EFE" stroke="#0B6EFE" stroke-width="0.5"/>
</svg>
