<svg width="18" height="18" viewBox="0 0 18 18" fill="none" xmlns="http://www.w3.org/2000/svg">
<path d="M7.20443 1.80018C5.77138 1.80018 4.39702 2.36949 3.3837 3.38287C2.37038 4.39624 1.80111 5.77068 1.80111 7.20381C1.80111 8.63694 2.37038 10.0114 3.3837 11.0248C4.39702 12.0381 5.77138 12.6074 7.20443 12.6074C8.63748 12.6074 10.0118 12.0381 11.0252 11.0248C12.0385 10.0114 12.6077 8.63694 12.6077 7.20381C12.6077 5.77068 12.0385 4.39624 11.0252 3.38287C10.0118 2.36949 8.63748 1.80018 7.20443 1.80018ZM4.4502e-08 7.20381C0.000164194 6.05721 0.273965 4.92721 0.798646 3.90772C1.32333 2.88823 2.08374 2.00869 3.01668 1.34221C3.94962 0.675721 5.02815 0.241533 6.16263 0.0757285C7.29711 -0.0900758 8.45477 0.0172924 9.53942 0.38891C10.6241 0.760527 11.6043 1.38566 12.3988 2.21236C13.1933 3.03905 13.779 4.04344 14.1073 5.14203C14.4355 6.24063 14.4969 7.40171 14.2862 8.52878C14.0755 9.65585 13.5989 10.7164 12.8959 11.6222L17.7472 16.4737C17.9112 16.6436 18.002 16.8711 18 17.1072C17.9979 17.3434 17.9032 17.5692 17.7362 17.7362C17.5693 17.9032 17.3434 17.9979 17.1073 18C16.8711 18.002 16.6437 17.9112 16.4738 17.7472L11.6225 12.8956C10.5576 13.7225 9.28202 14.2339 7.94087 14.3717C6.59971 14.5095 5.24679 14.2682 4.03596 13.6753C2.82513 13.0823 1.80497 12.1614 1.09149 11.0174C0.378015 9.87339 -0.00014978 8.5521 4.4502e-08 7.20381Z" fill="#0D0D0D"/>
</svg>
