<svg width="18" height="20" viewBox="0 0 18 20" fill="none" xmlns="http://www.w3.org/2000/svg">
<path d="M6 0C6.26522 0 6.51957 0.110902 6.70711 0.308309C6.89464 0.505715 7 0.773456 7 1.05263V2.10526H11V1.05263C11 0.773456 11.1054 0.505715 11.2929 0.308309C11.4804 0.110902 11.7348 0 12 0C12.2652 0 12.5196 0.110902 12.7071 0.308309C12.8946 0.505715 13 0.773456 13 1.05263V2.10526H16C16.5304 2.10526 17.0391 2.32707 17.4142 2.72188C17.7893 3.11669 18 3.65218 18 4.21053V17.8947C18 18.4531 17.7893 18.9886 17.4142 19.3834C17.0391 19.7782 16.5304 20 16 20H2C1.46957 20 0.960859 19.7782 0.585786 19.3834C0.210714 18.9886 0 18.4531 0 17.8947V4.21053C0 3.65218 0.210714 3.11669 0.585786 2.72188C0.960859 2.32707 1.46957 2.10526 2 2.10526H5V1.05263C5 0.773456 5.10536 0.505715 5.29289 0.308309C5.48043 0.110902 5.73478 0 6 0ZM5 4.21053H2V7.36842H16V4.21053H13V5.26316C13 5.54233 12.8946 5.81007 12.7071 6.00748C12.5196 6.20489 12.2652 6.31579 12 6.31579C11.7348 6.31579 11.4804 6.20489 11.2929 6.00748C11.1054 5.81007 11 5.54233 11 5.26316V4.21053H7V5.26316C7 5.54233 6.89464 5.81007 6.70711 6.00748C6.51957 6.20489 6.26522 6.31579 6 6.31579C5.73478 6.31579 5.48043 6.20489 5.29289 6.00748C5.10536 5.81007 5 5.54233 5 5.26316V4.21053ZM16 9.47368H2V17.8947H16V9.47368Z" fill="black"/>
</svg>
