<svg width="11" height="10" viewBox="0 0 11 10" fill="none" xmlns="http://www.w3.org/2000/svg">
<path d="M6.07452 0.487976C5.92215 0.335603 5.71549 0.25 5.5 0.25C5.28451 0.25 5.07785 0.335603 4.92548 0.487976C4.7731 0.640349 4.6875 0.847011 4.6875 1.0625V4.1875H1.5625C1.34701 4.1875 1.14035 4.2731 0.987976 4.42548L1.16475 4.60225L0.987976 4.42548C0.835603 4.57785 0.75 4.78451 0.75 5C0.75 5.21549 0.835603 5.42215 0.987976 5.57452C1.14035 5.7269 1.34701 5.8125 1.5625 5.8125H4.6875V8.9375C4.6875 9.15299 4.7731 9.35965 4.92548 9.51202C5.07785 9.6644 5.28451 9.75 5.5 9.75C5.71549 9.75 5.92215 9.6644 6.07452 9.51203C6.2269 9.35965 6.3125 9.15299 6.3125 8.9375V5.8125H9.4375C9.65299 5.8125 9.85965 5.7269 10.012 5.57452C10.1644 5.42215 10.25 5.21549 10.25 5C10.25 4.78451 10.1644 4.57785 10.012 4.42548C9.85965 4.2731 9.65299 4.1875 9.4375 4.1875H6.3125V1.0625C6.3125 0.847012 6.2269 0.640349 6.07452 0.487976Z" fill="#8F00FF" stroke="#8F00FF" stroke-width="0.5"/>
</svg>
