<svg width="24" height="26" viewBox="0 0 24 26" fill="none" xmlns="http://www.w3.org/2000/svg">
<path d="M12.2144 2.6C10.8588 2.6 9.55877 3.14786 8.60025 4.12304C7.64173 5.09823 7.10324 6.42087 7.10324 7.8C7.10324 9.17913 7.64173 10.5018 8.60025 11.477C9.55877 12.4521 10.8588 13 12.2144 13C13.5699 13 14.8699 12.4521 15.8285 11.477C16.787 10.5018 17.3255 9.17913 17.3255 7.8C17.3255 6.42087 16.787 5.09823 15.8285 4.12304C14.8699 3.14786 13.5699 2.6 12.2144 2.6ZM4.54769 7.8C4.54769 5.73131 5.35542 3.74735 6.7932 2.28457C8.23098 0.821783 10.181 0 12.2144 0C14.2477 0 16.1977 0.821783 17.6355 2.28457C19.0733 3.74735 19.881 5.73131 19.881 7.8C19.881 9.86869 19.0733 11.8526 17.6355 13.3154C16.1977 14.7782 14.2477 15.6 12.2144 15.6C10.181 15.6 8.23098 14.7782 6.7932 13.3154C5.35542 11.8526 4.54769 9.86869 4.54769 7.8ZM7.10324 20.8C6.08658 20.8 5.11156 21.2109 4.39267 21.9423C3.67378 22.6737 3.26991 23.6657 3.26991 24.7C3.26991 25.0448 3.13529 25.3754 2.89566 25.6192C2.65603 25.863 2.33102 26 1.99213 26C1.65325 26 1.32824 25.863 1.08861 25.6192C0.848978 25.3754 0.714355 25.0448 0.714355 24.7C0.714355 22.9761 1.38747 21.3228 2.58562 20.1038C3.78377 18.8848 5.40881 18.2 7.10324 18.2H17.3255C19.0199 18.2 20.6449 18.8848 21.8431 20.1038C23.0412 21.3228 23.7144 22.9761 23.7144 24.7C23.7144 25.0448 23.5797 25.3754 23.3401 25.6192C23.1005 25.863 22.7755 26 22.4366 26C22.0977 26 21.7727 25.863 21.5331 25.6192C21.2934 25.3754 21.1588 25.0448 21.1588 24.7C21.1588 23.6657 20.7549 22.6737 20.036 21.9423C19.3172 21.2109 18.3421 20.8 17.3255 20.8H7.10324Z" fill="#0D0D0D" fill-opacity="0.6"/>
</svg>
