<svg width="35" height="27" viewBox="0 0 35 27" fill="none" xmlns="http://www.w3.org/2000/svg">
<path d="M21 17.3387C21 10.611 11.5 1 11.5 1C11.5 1 2 10.611 2 17.3387C2.13259 19.7578 3.20621 22.0255 4.98627 23.6463C6.76634 25.2671 9.10813 26.1092 11.5 25.9886C13.8919 26.1092 16.2337 25.2671 18.0137 23.6463C19.7938 22.0255 20.8674 19.7578 21 17.3387V17.3387Z" stroke="black" stroke-width="2" stroke-linecap="round" stroke-linejoin="round"/>
<path d="M32 3.71429H27.7143C26.7675 3.71429 26 4.4818 26 5.42857V24.2857C26 25.2325 26.7675 26 27.7143 26H32C32.9468 26 33.7143 25.2325 33.7143 24.2857V5.42857C33.7143 4.4818 32.9468 3.71429 32 3.71429Z" stroke="black" stroke-width="2" stroke-linecap="round" stroke-linejoin="round"/>
</svg>
