<svg width="19" height="16" viewBox="0 0 19 16" fill="none" xmlns="http://www.w3.org/2000/svg">
<path d="M9.0709 5.03559L11.708 7.67273L11.7206 7.53459C11.7206 6.14904 10.5946 5.02304 9.20903 5.02304L9.0709 5.03559Z" fill="black"/>
<path d="M9.20905 3.34866C11.5197 3.34866 13.395 5.22397 13.395 7.53461C13.395 8.07459 13.2862 8.58946 13.0978 9.06246L15.5466 11.5112C16.8107 10.4564 17.807 9.09177 18.4223 7.53461C16.9698 3.85937 13.3992 1.25571 9.20909 1.25571C8.03701 1.25571 6.91521 1.465 5.87291 1.84173L7.68124 3.64585C8.15419 3.46168 8.66906 3.34866 9.20905 3.34866Z" fill="black"/>
<path d="M0.837173 1.06741L3.12689 3.35713C1.74553 4.4371 0.653005 5.87289 0 7.53468C1.44834 11.2099 5.02312 13.8136 9.20906 13.8136C10.5067 13.8136 11.7457 13.5624 12.8801 13.1061L15.6764 15.9065L16.7438 14.8433L1.90459 0L0.837173 1.06741ZM5.46684 5.69288L6.76029 6.98633C6.72262 7.16634 6.6975 7.34631 6.6975 7.53468C6.6975 8.92023 7.8235 10.0462 9.20906 10.0462C9.39743 10.0462 9.57743 10.0211 9.75324 9.98344L11.0467 11.2769C10.49 11.5532 9.87046 11.7206 9.20906 11.7206C6.89843 11.7206 5.02312 9.84531 5.02312 7.53468C5.02312 6.87331 5.19057 6.25378 5.46684 5.69288Z" fill="black"/>
</svg>
