<svg width="710" height="710" viewBox="0 0 710 710" fill="none" xmlns="http://www.w3.org/2000/svg">
<rect width="710" height="710" fill="#D9D9D9"/>
<path d="M180.521 490.792V417.487H193.915V481.561H211.653V490.792H180.521ZM218.159 490.792V438.483H230.467V490.792H218.159ZM218.159 430.157V419.93H230.467V430.157H218.159ZM261.513 507.987V486.9C260.125 488.348 258.647 489.495 257.079 490.339C255.51 491.184 253.821 491.606 252.011 491.606C247.848 491.606 244.71 490.128 242.599 487.172C240.487 484.215 239.431 479.479 239.431 472.963V456.945C239.431 453.325 239.823 450.067 240.608 447.171C241.392 444.275 242.689 441.982 244.499 440.293C246.369 438.543 248.843 437.668 251.92 437.668C253.79 437.668 255.51 438.06 257.079 438.845C258.708 439.629 260.186 440.655 261.513 441.922V438.483H273.821V507.987H261.513ZM256.626 483.099C257.29 483.099 258.044 482.948 258.889 482.647C259.794 482.345 260.668 481.923 261.513 481.38V447.895C260.789 447.352 260.005 446.929 259.16 446.628C258.315 446.266 257.441 446.085 256.536 446.085C254.726 446.085 253.459 446.899 252.735 448.528C252.071 450.097 251.739 452.028 251.739 454.32V473.868C251.739 475.618 251.86 477.187 252.101 478.574C252.403 479.962 252.885 481.078 253.549 481.923C254.273 482.707 255.299 483.099 256.626 483.099ZM291.526 491.606C289.474 491.606 287.785 491.093 286.458 490.068C285.13 488.982 284.165 487.564 283.562 485.814C282.958 484.004 282.657 482.104 282.657 480.113V438.483H294.965V477.85C294.965 479.419 295.206 480.656 295.689 481.561C296.232 482.405 297.197 482.828 298.585 482.828C299.49 482.828 300.395 482.586 301.3 482.104C302.265 481.621 303.2 481.048 304.105 480.384V438.483H316.413V490.792H304.105V485.814C302.356 487.504 300.425 488.891 298.313 489.977C296.202 491.063 293.939 491.606 291.526 491.606ZM326.247 490.792V438.483H338.555V490.792H326.247ZM326.247 430.157V419.93H338.555V430.157H326.247Z" fill="#FF007A"/>
<path d="M368.876 491.787C363.507 491.787 359.283 490.731 356.206 488.62C353.19 486.508 351.078 483.642 349.871 480.022C348.665 476.342 348.061 472.119 348.061 467.352V441.198C348.061 436.19 348.665 431.846 349.871 428.166C351.078 424.485 353.19 421.65 356.206 419.659C359.283 417.668 363.507 416.672 368.876 416.672C373.944 416.672 377.896 417.547 380.732 419.297C383.628 420.986 385.679 423.43 386.886 426.627C388.093 429.825 388.696 433.535 388.696 437.759V443.913H375.845V437.578C375.845 435.526 375.724 433.656 375.483 431.967C375.302 430.277 374.729 428.95 373.763 427.985C372.858 426.959 371.26 426.446 368.967 426.446C366.674 426.446 364.985 426.989 363.899 428.075C362.873 429.101 362.21 430.519 361.908 432.329C361.606 434.078 361.455 436.069 361.455 438.302V470.158C361.455 472.812 361.667 475.015 362.089 476.764C362.511 478.454 363.265 479.751 364.351 480.656C365.498 481.5 367.036 481.923 368.967 481.923C371.199 481.923 372.768 481.41 373.673 480.384C374.638 479.298 375.242 477.88 375.483 476.131C375.724 474.381 375.845 472.42 375.845 470.248V463.642H388.696V469.524C388.696 473.868 388.123 477.73 386.976 481.108C385.83 484.427 383.809 487.051 380.913 488.982C378.077 490.852 374.065 491.787 368.876 491.787ZM397.568 505V496.131C399.68 496.131 401.4 496.011 402.727 495.769C404.054 495.528 405.02 495.106 405.623 494.502C406.226 493.899 406.528 493.054 406.528 491.968C406.528 491.184 406.317 489.947 405.894 488.258C405.532 486.568 405.11 484.728 404.627 482.737L393.134 438.483H405.08L411.867 472.963L417.75 438.483H429.605L417.388 492.873C416.724 495.95 415.608 498.364 414.039 500.113C412.471 501.863 410.51 503.1 408.157 503.824C405.804 504.608 403.059 505 399.921 505H397.568ZM451.045 491.606C447.002 491.606 443.744 490.852 441.271 489.344C438.857 487.775 437.078 485.573 435.931 482.737C434.845 479.841 434.302 476.432 434.302 472.511V456.764C434.302 452.721 434.845 449.282 435.931 446.447C437.078 443.611 438.888 441.439 441.361 439.931C443.835 438.422 447.063 437.668 451.045 437.668C454.785 437.668 457.832 438.272 460.185 439.478C462.599 440.625 464.348 442.404 465.434 444.818C466.52 447.171 467.063 450.157 467.063 453.777V458.121H455.479V453.506C455.479 451.696 455.328 450.278 455.027 449.252C454.785 448.166 454.333 447.412 453.669 446.99C453.006 446.507 452.131 446.266 451.045 446.266C449.959 446.266 449.084 446.567 448.42 447.171C447.757 447.714 447.274 448.619 446.972 449.886C446.731 451.153 446.61 452.902 446.61 455.135V474.321C446.61 477.699 446.972 479.992 447.696 481.199C448.42 482.345 449.567 482.918 451.135 482.918C452.342 482.918 453.247 482.647 453.85 482.104C454.514 481.561 454.936 480.776 455.117 479.751C455.359 478.665 455.479 477.368 455.479 475.859V470.248H467.063V475.226C467.063 478.725 466.49 481.712 465.344 484.185C464.258 486.659 462.508 488.529 460.095 489.796C457.742 491.003 454.725 491.606 451.045 491.606ZM475.971 490.792V417.487H488.189V490.792H475.971ZM513.796 491.606C509.874 491.606 506.677 490.882 504.203 489.434C501.729 487.926 499.889 485.754 498.682 482.918C497.536 480.022 496.963 476.553 496.963 472.511V456.764C496.963 452.601 497.536 449.101 498.682 446.266C499.889 443.43 501.729 441.288 504.203 439.84C506.737 438.392 509.935 437.668 513.796 437.668C517.959 437.668 521.187 438.453 523.479 440.021C525.832 441.59 527.492 443.883 528.457 446.899C529.483 449.856 529.995 453.476 529.995 457.759V465.18H509.18V475.497C509.18 477.187 509.331 478.574 509.633 479.66C509.995 480.746 510.538 481.531 511.262 482.013C511.986 482.496 512.861 482.737 513.886 482.737C514.972 482.737 515.847 482.496 516.511 482.013C517.175 481.47 517.657 480.716 517.959 479.751C518.261 478.725 518.411 477.458 518.411 475.95V471.606H529.905V475.135C529.905 480.445 528.578 484.517 525.923 487.353C523.268 490.188 519.226 491.606 513.796 491.606ZM509.18 459.117H518.411V454.139C518.411 452.329 518.261 450.881 517.959 449.795C517.657 448.649 517.175 447.834 516.511 447.352C515.847 446.809 514.912 446.537 513.705 446.537C512.619 446.537 511.745 446.809 511.081 447.352C510.417 447.895 509.935 448.8 509.633 450.067C509.331 451.334 509.18 453.144 509.18 455.497V459.117Z" fill="#692B49"/>
<path d="M352.257 338.38L362.872 375.697L286.226 373.351C270.137 373.351 247.791 362.178 255.836 347.541L274.606 333.352L352.257 338.38Z" fill="#692B49"/>
<path d="M297.399 235.478L332.146 295.699L294.158 276.706L281.086 340.614C279.075 343.966 279.969 368.099 278.628 373.351C272.148 368.77 287.678 378.378 260.528 365.306C247.009 357.597 245.892 349.441 243.657 340.726C242.205 335.251 239.635 327.319 241.981 308.213C242.652 299.386 243.992 290.895 245.333 288.549L255.836 252.125L227.792 236.036L297.399 235.478Z" fill="#FF007A"/>
<path d="M400.3 336.368C400.747 347.318 404.657 357.597 411.138 364.971C417.618 372.345 426.109 376.144 434.712 375.585C443.315 376.144 451.807 372.345 458.287 364.971C464.767 357.597 468.566 347.318 469.125 336.368C469.125 305.867 434.712 262.292 434.712 262.292C434.712 262.292 400.3 305.867 400.3 336.368Z" fill="#FF007A"/>
<path d="M421.417 269.108L369.017 257.488L388.457 246.316L364.324 204.529C362.983 202.183 357.732 193.468 354.939 190.675L384.324 155.927C389.463 155.927 408.569 200.395 410.356 203.635L422.199 226.316L441.64 215.143L421.417 269.108Z" fill="#692B49"/>
<path d="M329.129 228.998L289.242 210.898L338.067 155.704C345.218 147.101 380.971 146.095 385.217 156.709L385.664 161.514L329.129 228.998Z" fill="#FF007A"/>
<path d="M249.925 557.427C247.624 557.427 245.814 556.974 244.495 556.069C243.203 555.164 242.298 553.936 241.78 552.385C241.263 550.807 241.005 548.997 241.005 546.955V535.745C241.005 533.599 241.263 531.738 241.78 530.16C242.298 528.583 243.203 527.368 244.495 526.514C245.814 525.661 247.624 525.234 249.925 525.234C252.097 525.234 253.791 525.609 255.006 526.359C256.248 527.083 257.127 528.13 257.644 529.501C258.161 530.871 258.42 532.462 258.42 534.272V536.909H252.912V534.194C252.912 533.315 252.86 532.513 252.757 531.789C252.679 531.065 252.434 530.496 252.02 530.083C251.632 529.643 250.947 529.423 249.964 529.423C248.982 529.423 248.258 529.656 247.792 530.122C247.353 530.561 247.068 531.169 246.939 531.944C246.81 532.694 246.745 533.548 246.745 534.504V548.157C246.745 549.295 246.836 550.238 247.017 550.988C247.198 551.712 247.521 552.268 247.986 552.656C248.477 553.018 249.137 553.199 249.964 553.199C250.921 553.199 251.593 552.979 251.981 552.54C252.395 552.074 252.653 551.467 252.757 550.717C252.86 549.967 252.912 549.126 252.912 548.196V545.364H258.42V547.885C258.42 549.747 258.174 551.402 257.683 552.85C257.191 554.272 256.325 555.397 255.084 556.224C253.869 557.026 252.149 557.427 249.925 557.427ZM270.949 557.427C268.725 557.427 266.954 557.013 265.635 556.185C264.316 555.358 263.373 554.169 262.804 552.617C262.235 551.066 261.951 549.23 261.951 547.11V535.358C261.951 533.237 262.235 531.427 262.804 529.928C263.373 528.402 264.316 527.238 265.635 526.437C266.954 525.635 268.725 525.234 270.949 525.234C273.224 525.234 275.008 525.635 276.301 526.437C277.62 527.238 278.564 528.402 279.133 529.928C279.727 531.427 280.025 533.237 280.025 535.358V547.148C280.025 549.243 279.727 551.066 279.133 552.617C278.564 554.143 277.62 555.332 276.301 556.185C275.008 557.013 273.224 557.427 270.949 557.427ZM270.949 553.199C271.906 553.199 272.604 552.992 273.043 552.578C273.509 552.165 273.819 551.596 273.974 550.872C274.129 550.148 274.207 549.359 274.207 548.506V534.039C274.207 533.16 274.129 532.371 273.974 531.673C273.819 530.975 273.509 530.432 273.043 530.044C272.604 529.63 271.906 529.423 270.949 529.423C270.044 529.423 269.359 529.63 268.893 530.044C268.428 530.432 268.117 530.975 267.962 531.673C267.807 532.371 267.73 533.16 267.73 534.039V548.506C267.73 549.359 267.794 550.148 267.924 550.872C268.079 551.596 268.389 552.165 268.854 552.578C269.32 552.992 270.018 553.199 270.949 553.199ZM284.271 557V525.584H290.011V553.044H297.613V557H284.271ZM299.005 557L305.289 525.584H311.417L317.7 557H312.387L311.145 549.747H305.677L304.397 557H299.005ZM306.258 546.101H310.525L308.392 532.914L306.258 546.101ZM320.86 557V525.584H328.578C329.974 525.584 331.228 525.713 332.34 525.971C333.478 526.23 334.448 526.67 335.249 527.29C336.077 527.885 336.71 528.699 337.15 529.734C337.589 530.768 337.809 532.074 337.809 533.651C337.809 534.918 337.628 536.004 337.266 536.909C336.93 537.814 336.426 538.538 335.753 539.081C335.081 539.598 334.241 539.947 333.232 540.128C334.473 540.335 335.495 540.775 336.296 541.447C337.124 542.093 337.731 542.947 338.119 544.007C338.533 545.067 338.74 546.347 338.74 547.847C338.74 549.346 338.546 550.678 338.158 551.842C337.796 552.979 337.24 553.936 336.49 554.712C335.766 555.461 334.848 556.03 333.737 556.418C332.651 556.806 331.371 557 329.897 557H320.86ZM326.6 552.966H328.772C330.504 552.966 331.681 552.553 332.301 551.725C332.922 550.872 333.232 549.566 333.232 547.808C333.232 546.541 333.077 545.519 332.767 544.744C332.482 543.942 331.991 543.347 331.293 542.96C330.621 542.572 329.716 542.378 328.578 542.378H326.6V552.966ZM326.6 538.422H328.539C329.677 538.422 330.556 538.254 331.177 537.917C331.797 537.581 332.224 537.064 332.457 536.366C332.715 535.668 332.844 534.789 332.844 533.729C332.844 532.617 332.651 531.763 332.263 531.169C331.901 530.548 331.345 530.134 330.595 529.928C329.845 529.695 328.888 529.579 327.725 529.579H326.6V538.422ZM350.982 557.427C348.759 557.427 346.987 557.013 345.669 556.185C344.35 555.358 343.406 554.169 342.837 552.617C342.268 551.066 341.984 549.23 341.984 547.11V535.358C341.984 533.237 342.268 531.427 342.837 529.928C343.406 528.402 344.35 527.238 345.669 526.437C346.987 525.635 348.759 525.234 350.982 525.234C353.258 525.234 355.042 525.635 356.335 526.437C357.653 527.238 358.597 528.402 359.166 529.928C359.761 531.427 360.058 533.237 360.058 535.358V547.148C360.058 549.243 359.761 551.066 359.166 552.617C358.597 554.143 357.653 555.332 356.335 556.185C355.042 557.013 353.258 557.427 350.982 557.427ZM350.982 553.199C351.939 553.199 352.637 552.992 353.077 552.578C353.542 552.165 353.852 551.596 354.008 550.872C354.163 550.148 354.24 549.359 354.24 548.506V534.039C354.24 533.16 354.163 532.371 354.008 531.673C353.852 530.975 353.542 530.432 353.077 530.044C352.637 529.63 351.939 529.423 350.982 529.423C350.077 529.423 349.392 529.63 348.927 530.044C348.461 530.432 348.151 530.975 347.996 531.673C347.841 532.371 347.763 533.16 347.763 534.039V548.506C347.763 549.359 347.828 550.148 347.957 550.872C348.112 551.596 348.422 552.165 348.888 552.578C349.353 552.992 350.051 553.199 350.982 553.199ZM364.304 557V525.584H371.829C373.949 525.584 375.733 525.842 377.181 526.359C378.655 526.851 379.767 527.704 380.517 528.919C381.292 530.134 381.68 531.789 381.68 533.884C381.68 535.151 381.564 536.288 381.331 537.297C381.098 538.305 380.698 539.172 380.129 539.895C379.586 540.594 378.823 541.137 377.84 541.524L382.223 557H376.483L372.682 542.61H370.045V557H364.304ZM370.045 539.003H371.829C372.941 539.003 373.82 538.848 374.466 538.538C375.138 538.202 375.617 537.685 375.901 536.987C376.186 536.263 376.328 535.345 376.328 534.233C376.328 532.656 376.03 531.479 375.436 530.703C374.867 529.902 373.768 529.501 372.139 529.501H370.045V539.003ZM384.455 557L390.739 525.584H396.867L403.15 557H397.836L396.595 549.747H391.126L389.846 557H384.455ZM391.708 546.101H395.975L393.841 532.914L391.708 546.101ZM406.309 557V525.584H413.718C416.277 525.584 418.268 525.933 419.691 526.631C421.139 527.329 422.16 528.402 422.755 529.85C423.375 531.298 423.685 533.134 423.685 535.358V546.838C423.685 549.114 423.375 551.014 422.755 552.54C422.16 554.039 421.151 555.164 419.729 555.914C418.333 556.638 416.407 557 413.95 557H406.309ZM412.05 553.005H413.795C415.114 553.005 416.058 552.772 416.626 552.307C417.195 551.841 417.544 551.169 417.674 550.29C417.803 549.385 417.868 548.286 417.868 546.993V534.97C417.868 533.703 417.777 532.681 417.596 531.906C417.415 531.13 417.04 530.561 416.471 530.199C415.902 529.837 414.985 529.656 413.718 529.656H412.05V553.005ZM436.432 557.427C434.208 557.427 432.437 557.013 431.118 556.185C429.8 555.358 428.856 554.169 428.287 552.617C427.718 551.066 427.434 549.23 427.434 547.11V535.358C427.434 533.237 427.718 531.427 428.287 529.928C428.856 528.402 429.8 527.238 431.118 526.437C432.437 525.635 434.208 525.234 436.432 525.234C438.707 525.234 440.492 525.635 441.784 526.437C443.103 527.238 444.047 528.402 444.616 529.928C445.211 531.427 445.508 533.237 445.508 535.358V547.148C445.508 549.243 445.211 551.066 444.616 552.617C444.047 554.143 443.103 555.332 441.784 556.185C440.492 557.013 438.707 557.427 436.432 557.427ZM436.432 553.199C437.389 553.199 438.087 552.992 438.526 552.578C438.992 552.165 439.302 551.596 439.457 550.872C439.612 550.148 439.69 549.359 439.69 548.506V534.039C439.69 533.16 439.612 532.371 439.457 531.673C439.302 530.975 438.992 530.432 438.526 530.044C438.087 529.63 437.389 529.423 436.432 529.423C435.527 529.423 434.842 529.63 434.376 530.044C433.911 530.432 433.601 530.975 433.446 531.673C433.29 532.371 433.213 533.16 433.213 534.039V548.506C433.213 549.359 433.277 550.148 433.407 550.872C433.562 551.596 433.872 552.165 434.338 552.578C434.803 552.992 435.501 553.199 436.432 553.199ZM449.754 557V525.584H457.278C459.399 525.584 461.183 525.842 462.631 526.359C464.105 526.851 465.217 527.704 465.966 528.919C466.742 530.134 467.13 531.789 467.13 533.884C467.13 535.151 467.014 536.288 466.781 537.297C466.548 538.305 466.147 539.172 465.579 539.895C465.036 540.594 464.273 541.137 463.29 541.524L467.673 557H461.933L458.132 542.61H455.494V557H449.754ZM455.494 539.003H457.278C458.39 539.003 459.269 538.848 459.916 538.538C460.588 538.202 461.067 537.685 461.351 536.987C461.635 536.263 461.778 535.345 461.778 534.233C461.778 532.656 461.48 531.479 460.886 530.703C460.317 529.902 459.218 529.501 457.589 529.501H455.494V539.003Z" fill="#FF007A"/>
</svg>
