<?xml version="1.0" standalone="no"?>
<!DOCTYPE svg PUBLIC "-//W3C//DTD SVG 20010904//EN"
 "http://www.w3.org/TR/2001/REC-SVG-20010904/DTD/svg10.dtd">
<svg version="1.0" xmlns="http://www.w3.org/2000/svg"
 width="493.000000pt" height="461.000000pt" viewBox="0 0 493.000000 461.000000"
 preserveAspectRatio="xMidYMid meet">

<g transform="translate(0.000000,461.000000) scale(0.100000,-0.100000)"
fill="#000000" stroke="none">
<path d="M2539 4564 c-84 -15 -166 -43 -215 -73 -25 -15 -1024 -1132 -1024
-1145 0 -2 176 -84 392 -182 l391 -178 39 45 c21 24 150 178 286 341 136 163
252 296 257 294 13 -3 81 -105 154 -231 43 -75 436 -760 457 -796 2 -3 -82
-55 -187 -115 -144 -83 -185 -111 -172 -116 23 -10 1015 -230 1018 -226 8 9
397 1059 394 1062 -2 2 -86 -44 -186 -101 -100 -58 -186 -102 -192 -99 -16 11
-249 469 -371 731 -296 638 -380 745 -615 790 -96 19 -322 18 -426 -1z"/>
<path d="M473 2840 l-402 -5 271 -155 c149 -85 272 -160 275 -166 4 -11 -90
-347 -183 -659 -56 -185 -60 -205 -84 -442 -33 -321 -27 -438 36 -688 56 -224
117 -327 248 -419 175 -123 356 -199 503 -211 80 -6 1616 -55 1620 -51 3 2
-205 737 -209 741 -2 1 -315 23 -696 47 -381 25 -695 47 -697 50 -6 6 222
1128 231 1137 3 3 170 -77 371 -177 201 -101 367 -181 369 -179 2 2 -150 270
-338 595 l-341 592 -286 -2 c-157 -2 -467 -5 -688 -8z"/>
<path d="M4110 2180 c-194 -275 -389 -621 -478 -851 -90 -235 -124 -424 -104
-583 56 -442 355 -731 729 -702 272 21 497 227 588 541 54 189 53 342 -6 550
-81 291 -295 700 -547 1050 -45 63 -86 115 -90 115 -4 0 -45 -54 -92 -120z"/>
</g>
</svg>
